<?xml version="1.0" encoding="UTF-8" standalone="no"?>
<!-- Generator: Adobe Illustrator 14.0.0, SVG Export Plug-In  -->

<svg
   xmlns:dc="http://purl.org/dc/elements/1.1/"
   xmlns:cc="http://creativecommons.org/ns#"
   xmlns:rdf="http://www.w3.org/1999/02/22-rdf-syntax-ns#"
   xmlns:svg="http://www.w3.org/2000/svg"
   xmlns="http://www.w3.org/2000/svg"
   xmlns:xlink="http://www.w3.org/1999/xlink"
   xmlns:sodipodi="http://sodipodi.sourceforge.net/DTD/sodipodi-0.dtd"
   xmlns:inkscape="http://www.inkscape.org/namespaces/inkscape"
   version="1.1"
   x="0px"
   y="0px"
   width="80"
   height="77.999992"
   viewBox="-0.424 -0.244 80 77.999992"
   enable-background="new -0.424 -0.244 758 171"
   xml:space="preserve"
   id="svg2"
   inkscape:version="0.47 r22583"
   sodipodi:docname="new-fcm_logo.svg"
   inkscape:export-filename="/home/thorwil/Desktop/full_circle_magazine/export/full_circle_magazine_set_05.png"
   inkscape:export-xdpi="90"
   inkscape:export-ydpi="90"><metadata
   id="metadata24"><rdf:RDF><cc:Work
       rdf:about=""><dc:format>image/svg+xml</dc:format><dc:type
         rdf:resource="http://purl.org/dc/dcmitype/StillImage" /><dc:title></dc:title></cc:Work></rdf:RDF></metadata><sodipodi:namedview
   pagecolor="#ffffff"
   bordercolor="#666666"
   borderopacity="1"
   objecttolerance="10"
   gridtolerance="10"
   guidetolerance="10"
   inkscape:pageopacity="0"
   inkscape:pageshadow="2"
   inkscape:window-width="1280"
   inkscape:window-height="972"
   id="namedview22"
   showgrid="false"
   inkscape:showpageshadow="false"
   borderlayer="true"
   showborder="true"
   inkscape:snap-bbox="true"
   inkscape:bbox-paths="true"
   inkscape:bbox-nodes="true"
   inkscape:snap-bbox-midpoints="true"
   inkscape:snap-bbox-edge-midpoints="true"
   inkscape:object-paths="true"
   inkscape:object-nodes="true"
   inkscape:snap-intersection-paths="true"
   inkscape:snap-midpoints="true"
   inkscape:snap-smooth-nodes="true"
   inkscape:snap-object-midpoints="true"
   inkscape:snap-center="true"
   inkscape:snap-page="true"
   inkscape:snap-global="true"
   inkscape:zoom="3.6018237"
   inkscape:cx="164.5"
   inkscape:cy="38.999996"
   inkscape:window-x="0"
   inkscape:window-y="24"
   inkscape:window-maximized="1"
   inkscape:current-layer="g4290"
   showguides="true"
   inkscape:guide-bbox="true"
   fit-margin-top="0"
   fit-margin-left="0"
   fit-margin-right="0"
   fit-margin-bottom="0"><inkscape:grid
     type="xygrid"
     id="grid5147"
     empspacing="5"
     visible="true"
     enabled="true"
     snapvisiblegridlinesonly="true" /></sodipodi:namedview>
<defs
   id="defs4"><inkscape:perspective
     sodipodi:type="inkscape:persp3d"
     inkscape:vp_x="0 : 38.999996 : 1"
     inkscape:vp_y="0 : 1000 : 0"
     inkscape:vp_z="329 : 38.999996 : 1"
     inkscape:persp3d-origin="164.5 : 25.999997 : 1"
     id="perspective117" /><marker
     inkscape:stockid="Arrow2Lstart"
     orient="auto"
     refY="0"
     refX="0"
     id="Arrow2Lstart"
     style="overflow:visible"><path
       id="path4209"
       style="font-size:12px;fill-rule:evenodd;stroke-width:0.625;stroke-linejoin:round"
       d="M 8.7185878,4.0337352 -2.2072895,0.01601326 8.7185884,-4.0017078 c -1.7454984,2.3720609 -1.7354408,5.6174519 -6e-7,8.035443 z"
       transform="matrix(1.1,0,0,1.1,1.1,0)"
       inkscape:connector-curvature="0" /></marker><marker
     inkscape:stockid="Arrow1Mstart"
     orient="auto"
     refY="0"
     refX="0"
     id="Arrow1Mstart"
     style="overflow:visible"><path
       id="path4197"
       d="M 0,0 5,-5 -12.5,0 5,5 0,0 z"
       style="fill-rule:evenodd;stroke:#000000;stroke-width:1pt;marker-start:none"
       transform="matrix(0.4,0,0,0.4,4,0)"
       inkscape:connector-curvature="0" /></marker><marker
     inkscape:stockid="Arrow1Lstart"
     orient="auto"
     refY="0"
     refX="0"
     id="Arrow1Lstart"
     style="overflow:visible"><path
       id="path4191"
       d="M 0,0 5,-5 -12.5,0 5,5 0,0 z"
       style="fill-rule:evenodd;stroke:#000000;stroke-width:1pt;marker-start:none"
       transform="matrix(0.8,0,0,0.8,10,0)"
       inkscape:connector-curvature="0" /></marker><linearGradient
     id="linearGradient4137"><stop
       style="stop-color:#d44918;stop-opacity:1;"
       offset="0"
       id="stop4139" /><stop
       id="stop4145"
       offset="0.64999998"
       style="stop-color:#dd501f;stop-opacity:1;" /><stop
       style="stop-color:#e35320;stop-opacity:1"
       offset="1"
       id="stop4141" /></linearGradient><linearGradient
     id="linearGradient4064"><stop
       style="stop-color:#fae2d8;stop-opacity:1"
       offset="0"
       id="stop4066" /><stop
       id="stop4072"
       offset="0.1"
       style="stop-color:#f9dcd0;stop-opacity:1;" /><stop
       style="stop-color:#f4bb9c;stop-opacity:1;"
       offset="0.55000001"
       id="stop4074" /><stop
       style="stop-color:#e55725;stop-opacity:1"
       offset="1"
       id="stop4068" /></linearGradient><linearGradient
     id="linearGradient4152"><stop
       style="stop-color:#ed6535;stop-opacity:1;"
       offset="0"
       id="stop4154" /><stop
       style="stop-color:#dd4814;stop-opacity:1;"
       offset="1"
       id="stop4156" /></linearGradient><linearGradient
     id="linearGradient3999"><stop
       style="stop-color:#fae2d8;stop-opacity:1"
       offset="0"
       id="stop4001" /><stop
       style="stop-color:#f4b58f;stop-opacity:1"
       offset="1"
       id="stop4003" /></linearGradient><radialGradient
     inkscape:collect="always"
     xlink:href="#linearGradient4152"
     id="radialGradient3281"
     gradientUnits="userSpaceOnUse"
     cx="712.02698"
     cy="45.326"
     fx="712.02698"
     fy="45.326"
     r="45.326" /><linearGradient
     inkscape:collect="always"
     xlink:href="#linearGradient3999"
     id="linearGradient3283"
     gradientUnits="userSpaceOnUse"
     gradientTransform="translate(0,360)"
     x1="31.567652"
     y1="176.0997"
     x2="56.669754"
     y2="162.47475" /><linearGradient
     inkscape:collect="always"
     xlink:href="#linearGradient3999"
     id="linearGradient3289"
     gradientUnits="userSpaceOnUse"
     gradientTransform="matrix(-0.5,0.8660254,-0.8660254,-0.5,194.54655,565.06538)"
     x1="31.567652"
     y1="176.0997"
     x2="56.669754"
     y2="162.47475" /><linearGradient
     inkscape:collect="always"
     xlink:href="#linearGradient3999"
     id="linearGradient3291"
     gradientUnits="userSpaceOnUse"
     gradientTransform="matrix(-0.5,-0.8660254,0.8660254,-0.5,-80.318555,631.01494)"
     x1="31.567652"
     y1="176.0997"
     x2="56.669754"
     y2="162.47475" /><linearGradient
     inkscape:collect="always"
     xlink:href="#linearGradient4064"
     id="linearGradient4117"
     gradientUnits="userSpaceOnUse"
     gradientTransform="translate(0.424,110.30656)"
     x1="28.904873"
     y1="500.40054"
     x2="24.99589"
     y2="533.8114" /><linearGradient
     inkscape:collect="always"
     xlink:href="#linearGradient4064"
     id="linearGradient4119"
     gradientUnits="userSpaceOnUse"
     gradientTransform="translate(0.424,110.30656)"
     x1="31.02099"
     y1="503.11423"
     x2="26.77622"
     y2="531.13336" /><linearGradient
     inkscape:collect="always"
     xlink:href="#linearGradient4064"
     id="linearGradient4127"
     gradientUnits="userSpaceOnUse"
     gradientTransform="translate(0.424,110.30656)"
     x1="28.904873"
     y1="500.40054"
     x2="24.99589"
     y2="533.8114" /><linearGradient
     inkscape:collect="always"
     xlink:href="#linearGradient4064"
     id="linearGradient4129"
     gradientUnits="userSpaceOnUse"
     gradientTransform="translate(0.424,110.30656)"
     x1="31.02099"
     y1="503.11423"
     x2="26.77622"
     y2="531.13336" /><linearGradient
     inkscape:collect="always"
     xlink:href="#linearGradient4137"
     id="linearGradient4143"
     x1="26.416273"
     y1="614.00787"
     x2="25.50441"
     y2="642.90546"
     gradientUnits="userSpaceOnUse"
     gradientTransform="translate(0,-110)" /><linearGradient
     inkscape:collect="always"
     xlink:href="#linearGradient4137"
     id="linearGradient4149"
     gradientUnits="userSpaceOnUse"
     x1="26.416273"
     y1="614.00787"
     x2="25.50441"
     y2="642.90546"
     gradientTransform="matrix(-0.5,0.8660254,-0.8660254,-0.5,611.57849,800.06538)" /><linearGradient
     inkscape:collect="always"
     xlink:href="#linearGradient4137"
     id="linearGradient4153"
     gradientUnits="userSpaceOnUse"
     gradientTransform="matrix(-0.5,-0.8660254,0.8660254,-0.5,-487.3505,876.01494)"
     x1="26.416273"
     y1="614.00787"
     x2="25.50441"
     y2="642.90546" /><linearGradient
     inkscape:collect="always"
     xlink:href="#linearGradient4064"
     id="linearGradient4155"
     gradientUnits="userSpaceOnUse"
     gradientTransform="translate(0.424,110.30656)"
     x1="28.904873"
     y1="500.40054"
     x2="24.99589"
     y2="533.8114" /><linearGradient
     inkscape:collect="always"
     xlink:href="#linearGradient4064"
     id="linearGradient4157"
     gradientUnits="userSpaceOnUse"
     gradientTransform="translate(0.424,110.30656)"
     x1="31.02099"
     y1="503.11423"
     x2="26.77622"
     y2="531.13336" /><linearGradient
     inkscape:collect="always"
     xlink:href="#linearGradient4137"
     id="linearGradient5401"
     gradientUnits="userSpaceOnUse"
     gradientTransform="translate(-10,-110)"
     x1="26.416273"
     y1="614.00787"
     x2="25.50441"
     y2="642.90546" /><linearGradient
     inkscape:collect="always"
     xlink:href="#linearGradient4137"
     id="linearGradient5407"
     gradientUnits="userSpaceOnUse"
     gradientTransform="translate(-9.576,-589.69345)"
     x1="26.416273"
     y1="614.00787"
     x2="25.50441"
     y2="642.90546" /><linearGradient
     inkscape:collect="always"
     xlink:href="#linearGradient4137"
     id="linearGradient5410"
     gradientUnits="userSpaceOnUse"
     gradientTransform="translate(0,-110)"
     x1="26.416273"
     y1="614.00787"
     x2="25.50441"
     y2="642.90546" /><linearGradient
     inkscape:collect="always"
     xlink:href="#linearGradient4137"
     id="linearGradient5416"
     gradientUnits="userSpaceOnUse"
     gradientTransform="matrix(-0.5,0.8660254,-0.8660254,-0.5,611.57849,800.06538)"
     x1="26.416273"
     y1="614.00787"
     x2="25.50441"
     y2="642.90546" /><linearGradient
     inkscape:collect="always"
     xlink:href="#linearGradient4137"
     id="linearGradient5422"
     gradientUnits="userSpaceOnUse"
     gradientTransform="matrix(-0.5,0.8660254,-0.8660254,-0.5,612.00249,320.37193)"
     x1="26.416273"
     y1="614.00787"
     x2="25.50441"
     y2="642.90546" /><linearGradient
     inkscape:collect="always"
     xlink:href="#linearGradient4137"
     id="linearGradient5425"
     gradientUnits="userSpaceOnUse"
     gradientTransform="matrix(-0.5,0.8660254,-0.8660254,-0.5,601.57849,800.06538)"
     x1="26.416273"
     y1="614.00787"
     x2="25.50441"
     y2="642.90546" /><linearGradient
     inkscape:collect="always"
     xlink:href="#linearGradient4137"
     id="linearGradient5457"
     gradientUnits="userSpaceOnUse"
     gradientTransform="matrix(-0.5,-0.8660254,0.8660254,-0.5,-487.3505,876.01494)"
     x1="26.416273"
     y1="614.00787"
     x2="25.50441"
     y2="642.90546" /><linearGradient
     inkscape:collect="always"
     xlink:href="#linearGradient4137"
     id="linearGradient5463"
     gradientUnits="userSpaceOnUse"
     gradientTransform="matrix(-0.5,-0.8660254,0.8660254,-0.5,-486.9265,396.32149)"
     x1="26.416273"
     y1="614.00787"
     x2="25.50441"
     y2="642.90546" /><linearGradient
     inkscape:collect="always"
     xlink:href="#linearGradient4137"
     id="linearGradient5466"
     gradientUnits="userSpaceOnUse"
     gradientTransform="matrix(-0.5,-0.8660254,0.8660254,-0.5,-487.3505,866.01494)"
     x1="26.416273"
     y1="614.00787"
     x2="25.50441"
     y2="642.90546" /></defs>


















<g
   inkscape:groupmode="layer"
   id="layer2"
   inkscape:label="symbol"
   style="display:inline"
   transform="translate(0,-479.93745)"><circle
     d="m 757.35298,45.326 c 0,25.032859 -20.29314,45.326 -45.326,45.326 -25.03286,0 -45.326,-20.293141 -45.326,-45.326 0,-25.032858 20.29314,-45.326 45.326,-45.326 25.03286,0 45.326,20.293142 45.326,45.326 z"
     id="circle3247"
     r="45.326"
     cy="45.326"
     cx="712.02698"
     sodipodi:cx="712.02698"
     sodipodi:cy="45.326"
     sodipodi:rx="45.326"
     sodipodi:ry="45.326"
     transform="matrix(0.84940211,0,0,0.84940211,-566.72122,480.19344)"
     style="fill:url(#radialGradient3281);fill-opacity:1;display:inline" /><path
     style="font-size:medium;font-style:normal;font-variant:normal;font-weight:normal;font-stretch:normal;text-indent:0;text-align:start;text-decoration:none;line-height:normal;letter-spacing:normal;word-spacing:normal;text-transform:none;direction:ltr;block-progression:tb;writing-mode:lr-tb;text-anchor:start;color:#000000;fill:url(#linearGradient5466);fill-opacity:1;stroke:none;stroke-width:2;marker:none;visibility:visible;display:inline;overflow:visible;enable-background:accumulate;font-family:Sans;-inkscape-font-specification:Sans"
     d="m 60.23225,519.50595 a 1.0001,1.0001 0 0 0 -0.59375,0.46875 1.0001,1.0001 0 0 0 0,0.0312 c -0.578521,0.90729 -1.50291,1.50035 -2.9375,1.46875 -1.351662,-0.0297 -2.196016,-0.40932 -3.03125,-1.3125 a 1.0001,1.0001 0 0 0 -1.71875,0.5625 c -0.97663,6.77724 -6.816452,11.96875 -13.875,11.96875 -1.799819,0 -3.51359,-0.35057 -5.09375,-0.96875 -2.100731,-0.83047 -4.315149,-0.0558 -5.5625,1.5625 -1.847152,2.43235 -0.881878,5.85924 1.6875,7.125 -0.0013,-6.3e-4 0.03875,0.005 0.09375,0.0312 a 1.0001,1.0001 0 0 0 0.03125,0.0312 c 2.729537,1.10977 5.715783,1.71875 8.84375,1.71875 12.232047,0 22.2441,-9.36073 23.34375,-21.3125 a 1.0001,1.0001 0 0 0 0.03125,-0.1561 c 0.0019,-0.0226 0.02939,-0.0399 0.03125,-0.0625 a 1.0001,1.0001 0 0 0 0,-0.0625 1.0001,1.0001 0 0 0 -0.28125,-0.8125 1.0001,1.0001 0 0 0 -0.84375,-0.28125 1.0001,1.0001 0 0 0 -0.125,0 z"
     id="path5461"
     inkscape:connector-curvature="0" /><path
     style="font-size:medium;font-style:normal;font-variant:normal;font-weight:normal;font-stretch:normal;text-indent:0;text-align:start;text-decoration:none;line-height:normal;letter-spacing:normal;word-spacing:normal;text-transform:none;direction:ltr;block-progression:tb;writing-mode:lr-tb;text-anchor:start;color:#000000;fill:url(#linearGradient5425);fill-opacity:1;stroke:none;stroke-width:2;marker:none;visibility:visible;display:inline;overflow:visible;enable-background:accumulate;font-family:Sans;-inkscape-font-specification:Sans"
     d="m 38.1385,495.19345 c -0.539471,-0.002 -1.053177,0.0266 -1.59375,0.0625 -2.819597,0.1872 -5.65987,0.90664 -8.34375,2.15625 a 1.0001,1.0001 0 0 0 -0.09375,0.0312 c -0.03017,0.0142 -0.06362,0.017 -0.09375,0.0312 l 0,0.0312 a 1.0001,1.0001 0 0 0 -0.5625,0.78125 1.0001,1.0001 0 0 0 0.96875,1.09375 1.0001,1.0001 0 0 0 0.0625,0 c 1.059931,0.0574 2.037106,0.56941 2.71875,1.8125 0.650077,1.18544 0.739561,2.10632 0.375,3.28125 a 1.0001,1.0001 0 0 0 1.34375,1.21875 c 6.357573,-2.54283 13.751974,-0.11288 17.28125,6 0.899909,1.55869 1.46403,3.2287 1.71875,4.90625 0.331158,2.23452 2.099873,3.79139 4.125,4.0625 3.030055,0.38351 5.532256,-2.17322 5.34375,-5.03125 a 1.0001,1.0001 0 0 0 0,-0.0312 c 2.14e-4,0.003 -0.02607,-0.002 -0.03125,-0.0625 a 1.0001,1.0001 0 0 0 0,-0.0625 c -0.403687,-2.91863 -1.342266,-5.82235 -2.90625,-8.53125 -4.335182,-7.50877 -12.220433,-11.72665 -20.3125,-11.75 z"
     id="path5420"
     inkscape:connector-curvature="0" /><path
     style="font-size:medium;font-style:normal;font-variant:normal;font-weight:normal;font-stretch:normal;text-indent:0;text-align:start;text-decoration:none;line-height:normal;letter-spacing:normal;word-spacing:normal;text-transform:none;direction:ltr;block-progression:tb;writing-mode:lr-tb;text-anchor:start;color:#000000;fill:url(#linearGradient5410);fill-opacity:1;stroke:none;stroke-width:2;marker:none;visibility:visible;display:inline;overflow:visible;enable-background:accumulate;font-family:Sans;-inkscape-font-specification:Sans"
     d="m 26.451,499.25595 c -0.255681,-0.004 -0.495967,0.0256 -0.75,0.0625 -0.677421,0.0984 -1.342281,0.35193 -1.9375,0.75 4.78e-4,-3.2e-4 -0.01338,0.0283 -0.0625,0.0625 a 1.0001,1.0001 0 0 0 -0.03125,0.0312 c -2.325855,1.80897 -4.373514,4.07235 -5.9375,6.78125 -6.10063,10.5666 -2.992329,23.86938 6.75,30.8125 a 1.0001,1.0001 0 0 0 0.0625,0.0625 1.0001,1.0001 0 0 0 1,0.34375 1.0001,1.0001 0 0 0 0.65625,-1.4375 c -0.01093,-0.0207 -0.02072,-0.0416 -0.03125,-0.0625 -0.476545,-0.94475 -0.546168,-2.01027 0.1875,-3.21875 0.701586,-1.15571 1.456454,-1.72826 2.65625,-2 a 1.0001,1.0001 0 0 0 0.40625,-1.75 c -5.380939,-4.23441 -6.99802,-11.88712 -3.46875,-18 0.899912,-1.55869 2.080811,-2.87813 3.40625,-3.9375 1.769573,-1.40405 2.215277,-3.70438 1.4375,-5.59375 -0.776276,-1.84791 -2.553986,-2.8786 -4.34375,-2.90625 z"
     id="path5405"
     inkscape:connector-curvature="0" /><path
     inkscape:connector-curvature="0"
     style="fill:url(#linearGradient3283);fill-opacity:1;fill-rule:evenodd;stroke:none;display:inline"
     d="m 60.482253,520.506 c -0.745823,1.18484 -2.046652,2.00765 -3.8125,1.96875 -1.559021,-0.0343 -2.751999,-0.54581 -3.75,-1.625 -1.046444,7.26164 -7.292399,12.84375 -14.84375,12.84375 -1.927454,0 -3.775943,-0.369 -5.46875,-1.03125 -1.703309,-0.67336 -3.403017,-0.0828 -4.40625,1.21875 -1.473424,1.94021 -0.67921,4.62843 1.34375,5.625 0.02115,0.0104 0.04109,0.0212 0.0625,0.0312 2.614212,1.06288 5.472819,1.65625 8.46875,1.65625 11.81743,0 21.484923,-9.10701 22.40625,-20.6875 z"
     id="path3251"
     inkscape:transform-center-x="-5.8864544"
     inkscape:transform-center-y="12.15626" /><path
     inkscape:transform-center-y="0.037297494"
     inkscape:transform-center-x="15.208385"
     id="path3259"
     d="m 25.303148,537.19155 c -0.65319,-1.23833 -0.71535,-2.77628 0.201262,-4.2861 0.809215,-1.333 1.848685,-2.1104 3.282291,-2.4351 -5.765542,-4.53706 -7.476814,-12.73727 -3.701138,-19.27694 0.963727,-1.66922 2.207535,-3.08556 3.627463,-4.22045 1.434802,-1.13843 1.773216,-2.9057 1.147657,-4.4253 -0.943559,-2.24612 -3.668733,-2.90242 -5.543268,-1.64878 -0.01958,0.0131 -0.0389,0.025 -0.05827,0.0385 -2.227587,1.73254 -4.170764,3.91148 -5.66873,6.50603 -5.908715,10.23419 -2.855559,23.15999 6.712776,29.74813 z"
     style="fill:url(#linearGradient3289);fill-opacity:1;fill-rule:evenodd;stroke:none;display:inline"
     inkscape:connector-curvature="0" /><path
     inkscape:connector-curvature="0"
     style="fill:url(#linearGradient3291);fill-opacity:1;fill-rule:evenodd;stroke:none;display:inline"
     d="m 28.442591,498.38277 c 1.39902,0.0535 2.762004,0.76863 3.61124,2.31735 0.749804,1.3673 0.903318,2.65621 0.467713,4.0601 6.81198,-2.72458 14.769206,-0.10648 18.544889,6.43319 0.963723,1.66922 1.568406,3.45456 1.841285,5.2517 0.268508,1.81179 1.629802,2.9885 3.258594,3.20655 2.416976,0.30591 4.347936,-1.72601 4.199519,-3.97622 -0.0016,-0.0235 -0.0022,-0.0462 -0.0042,-0.0697 -0.38663,-2.79541 -1.302059,-5.56772 -2.800022,-8.16228 -5.908711,-10.23419 -18.62936,-14.05298 -29.119024,-9.06063 z"
     id="path3261"
     inkscape:transform-center-x="-6.332219"
     inkscape:transform-center-y="-10.750556" /><g
     id="g4103"
     inkscape:transform-center-x="15.031248"
     inkscape:transform-center-y="-0.32812434"
     transform="translate(0,-110)"><path
       id="path3271"
       transform="translate(-0.424,-0.30655956)"
       d="M 27.1875,611.625 C 21.508165,615.32841 17.75,621.72147 17.75,629 c 0,6.86437 3.358913,12.94092 8.5,16.71875 -0.02355,-0.35833 -6.77e-4,-0.73545 0.125,-1.125 C 21.737831,640.98078 18.75,635.3385 18.75,629 c 0,-6.9127 3.561906,-12.97608 8.9375,-16.5 l -0.5,-0.875 z"
       style="font-size:medium;font-style:normal;font-variant:normal;font-weight:normal;font-stretch:normal;text-indent:0;text-align:start;text-decoration:none;line-height:normal;letter-spacing:normal;word-spacing:normal;text-transform:none;direction:ltr;block-progression:tb;writing-mode:lr-tb;text-anchor:start;color:#000000;fill:url(#linearGradient4155);fill-opacity:1;stroke:none;stroke-width:1.92238009;marker:none;visibility:visible;display:inline;overflow:visible;enable-background:accumulate;font-family:Sans;-inkscape-font-specification:Sans"
       inkscape:connector-curvature="0" /><path
       inkscape:transform-center-y="-0.45312434"
       inkscape:transform-center-x="13.531248"
       inkscape:connector-curvature="0"
       id="path3273"
       transform="translate(-0.424,-0.30655956)"
       d="M 28.6875,614.21875 C 23.901991,617.39665 20.75,622.82791 20.75,629 c 0,5.62222 2.635113,10.62192 6.71875,13.875 0.229789,-0.24526 0.479019,-0.49157 0.75,-0.65625 C 24.286652,639.15471 21.75,634.37572 21.75,629 c 0,-5.80294 2.959545,-10.90503 7.4375,-13.90625 l -0.5,-0.875 z"
       style="font-size:medium;font-style:normal;font-variant:normal;font-weight:normal;font-stretch:normal;text-indent:0;text-align:start;text-decoration:none;line-height:normal;letter-spacing:normal;word-spacing:normal;text-transform:none;direction:ltr;block-progression:tb;writing-mode:lr-tb;text-anchor:start;color:#000000;fill:url(#linearGradient4157);fill-opacity:1;stroke:none;stroke-width:1.92238009;marker:none;visibility:visible;display:inline;overflow:visible;enable-background:accumulate;font-family:Sans;-inkscape-font-specification:Sans" /></g><g
     inkscape:transform-center-y="-10.922318"
     inkscape:transform-center-x="-6.1747933"
     id="g4111"
     transform="matrix(-0.5,0.8660254,-0.8660254,-0.5,601.57849,800.06538)"><path
       inkscape:connector-curvature="0"
       style="font-size:medium;font-style:normal;font-variant:normal;font-weight:normal;font-stretch:normal;text-indent:0;text-align:start;text-decoration:none;line-height:normal;letter-spacing:normal;word-spacing:normal;text-transform:none;direction:ltr;block-progression:tb;writing-mode:lr-tb;text-anchor:start;color:#000000;fill:url(#linearGradient4117);fill-opacity:1;stroke:none;stroke-width:1.92238009;marker:none;visibility:visible;display:inline;overflow:visible;enable-background:accumulate;font-family:Sans;-inkscape-font-specification:Sans"
       d="M 27.1875,611.625 C 21.508165,615.32841 17.75,621.72147 17.75,629 c 0,6.86437 3.358913,12.94092 8.5,16.71875 -0.02355,-0.35833 -6.77e-4,-0.73545 0.125,-1.125 C 21.737831,640.98078 18.75,635.3385 18.75,629 c 0,-6.9127 3.561906,-12.97608 8.9375,-16.5 l -0.5,-0.875 z"
       transform="translate(-0.424,-0.30655956)"
       id="path4113" /><path
       style="font-size:medium;font-style:normal;font-variant:normal;font-weight:normal;font-stretch:normal;text-indent:0;text-align:start;text-decoration:none;line-height:normal;letter-spacing:normal;word-spacing:normal;text-transform:none;direction:ltr;block-progression:tb;writing-mode:lr-tb;text-anchor:start;color:#000000;fill:url(#linearGradient4119);fill-opacity:1;stroke:none;stroke-width:1.92238009;marker:none;visibility:visible;display:inline;overflow:visible;enable-background:accumulate;font-family:Sans;-inkscape-font-specification:Sans"
       d="M 28.6875,614.21875 C 23.901991,617.39665 20.75,622.82791 20.75,629 c 0,5.62222 2.635113,10.62192 6.71875,13.875 0.229789,-0.24526 0.479019,-0.49157 0.75,-0.65625 C 24.286652,639.15471 21.75,634.37572 21.75,629 c 0,-5.80294 2.959545,-10.90503 7.4375,-13.90625 l -0.5,-0.875 z"
       transform="translate(-0.424,-0.30655956)"
       id="path4115"
       inkscape:connector-curvature="0"
       inkscape:transform-center-x="13.531248"
       inkscape:transform-center-y="-0.45312434" /></g><g
     transform="matrix(-0.5,-0.8660254,0.8660254,-0.5,-487.3505,866.01494)"
     id="g4121"
     inkscape:transform-center-x="-5.6064506"
     inkscape:transform-center-y="11.497158"><path
       id="path4123"
       transform="translate(-0.424,-0.30655956)"
       d="M 27.1875,611.625 C 21.508165,615.32841 17.75,621.72147 17.75,629 c 0,6.86437 3.358913,12.94092 8.5,16.71875 -0.02355,-0.35833 -6.77e-4,-0.73545 0.125,-1.125 C 21.737831,640.98078 18.75,635.3385 18.75,629 c 0,-6.9127 3.561906,-12.97608 8.9375,-16.5 l -0.5,-0.875 z"
       style="font-size:medium;font-style:normal;font-variant:normal;font-weight:normal;font-stretch:normal;text-indent:0;text-align:start;text-decoration:none;line-height:normal;letter-spacing:normal;word-spacing:normal;text-transform:none;direction:ltr;block-progression:tb;writing-mode:lr-tb;text-anchor:start;color:#000000;fill:url(#linearGradient4127);fill-opacity:1;stroke:none;stroke-width:1.92238009;marker:none;visibility:visible;display:inline;overflow:visible;enable-background:accumulate;font-family:Sans;-inkscape-font-specification:Sans"
       inkscape:connector-curvature="0" /><path
       inkscape:transform-center-y="-0.45312434"
       inkscape:transform-center-x="13.531248"
       inkscape:connector-curvature="0"
       id="path4125"
       transform="translate(-0.424,-0.30655956)"
       d="M 28.6875,614.21875 C 23.901991,617.39665 20.75,622.82791 20.75,629 c 0,5.62222 2.635113,10.62192 6.71875,13.875 0.229789,-0.24526 0.479019,-0.49157 0.75,-0.65625 C 24.286652,639.15471 21.75,634.37572 21.75,629 c 0,-5.80294 2.959545,-10.90503 7.4375,-13.90625 l -0.5,-0.875 z"
       style="font-size:medium;font-style:normal;font-variant:normal;font-weight:normal;font-stretch:normal;text-indent:0;text-align:start;text-decoration:none;line-height:normal;letter-spacing:normal;word-spacing:normal;text-transform:none;direction:ltr;block-progression:tb;writing-mode:lr-tb;text-anchor:start;color:#000000;fill:url(#linearGradient4129);fill-opacity:1;stroke:none;stroke-width:1.92238009;marker:none;visibility:visible;display:inline;overflow:visible;enable-background:accumulate;font-family:Sans;-inkscape-font-specification:Sans" /></g><path
     inkscape:transform-center-y="17.440404"
     inkscape:transform-center-x="6.8882211"
     sodipodi:type="arc"
     style="fill:#ffffff;fill-opacity:1;fill-rule:evenodd;stroke:none"
     id="path3279"
     sodipodi:cx="25.455845"
     sodipodi:cy="145.20078"
     sodipodi:rx="4.5961943"
     sodipodi:ry="4.5961943"
     d="m 30.052039,145.20078 a 4.5961943,4.5961943 0 1 1 -9.192388,0 4.5961943,4.5961943 0 1 1 9.192388,0 z"
     transform="matrix(-0.40774292,-0.70623145,0.70623145,-0.40774292,-60.978136,613.31615)" /><path
     transform="matrix(-0.40774292,0.70623145,-0.70623145,-0.40774292,169.54874,557.16548)"
     d="m 30.052039,145.20078 a 4.5961943,4.5961943 0 1 1 -9.192388,0 4.5961943,4.5961943 0 1 1 9.192388,0 z"
     sodipodi:ry="4.5961943"
     sodipodi:rx="4.5961943"
     sodipodi:cy="145.20078"
     sodipodi:cx="25.455845"
     id="path3277"
     style="fill:#ffffff;fill-opacity:1;fill-rule:evenodd;stroke:none"
     sodipodi:type="arc"
     inkscape:transform-center-x="-18.547947"
     inkscape:transform-center-y="-2.75483" /><path
     sodipodi:type="arc"
     style="fill:#ffffff;fill-opacity:1;fill-rule:evenodd;stroke:none"
     id="path3275"
     sodipodi:cx="25.455845"
     sodipodi:cy="145.20078"
     sodipodi:rx="4.5961943"
     sodipodi:ry="4.5961943"
     d="m 30.052039,145.20078 a 4.5961943,4.5961943 0 1 1 -9.192388,0 4.5961943,4.5961943 0 1 1 9.192388,0 z"
     transform="matrix(0.81548584,0,0,0.81548584,5.6573915,385.59868)" /></g><g
   inkscape:groupmode="layer"
   id="layer4"
   inkscape:label="text"
   style="display:none"
   transform="translate(0,-479.93745)"><text
   xml:space="preserve"
   style="font-size:16.84726524px;font-style:normal;font-variant:normal;font-weight:normal;font-stretch:normal;text-align:start;line-height:125%;letter-spacing:0;word-spacing:0;writing-mode:lr-tb;text-anchor:start;fill:#000000;fill-opacity:1;stroke:none;font-family:UbuntuBeta;-inkscape-font-specification:UbuntuBeta"
   x="89.484016"
   y="70.674133"
   id="text4225"
   sodipodi:linespacing="125%"><tspan
     sodipodi:role="line"
     id="tspan4227"
     x="89.484016"
     y="70.674133">Independent Ubuntu Magazine</tspan></text>




<text
   sodipodi:linespacing="125%"
   id="text4254"
   y="190.67413"
   x="89.484016"
   style="font-size:16.84726524px;font-style:normal;font-variant:normal;font-weight:normal;font-stretch:normal;text-align:start;line-height:125%;letter-spacing:0;word-spacing:0;writing-mode:lr-tb;text-anchor:start;fill:#000000;fill-opacity:1;stroke:none;font-family:UbuntuBeta;-inkscape-font-specification:UbuntuBeta"
   xml:space="preserve"><tspan
     y="190.67413"
     x="89.484016"
     id="tspan4256"
     sodipodi:role="line">Independent Ubuntu Magazine</tspan></text>




<text
   xml:space="preserve"
   style="font-size:16.84726524px;font-style:normal;font-variant:normal;font-weight:normal;font-stretch:normal;text-align:start;line-height:125%;letter-spacing:0;word-spacing:0;writing-mode:lr-tb;text-anchor:start;fill:#000000;fill-opacity:1;stroke:none;font-family:UbuntuBeta;-inkscape-font-specification:UbuntuBeta"
   x="89.484016"
   y="310.67413"
   id="text4258"
   sodipodi:linespacing="125%"><tspan
     sodipodi:role="line"
     id="tspan4260"
     x="89.484016"
     y="310.67413">Independent Ubuntu Magazine</tspan></text>




<text
   sodipodi:linespacing="125%"
   id="text4043"
   y="440.67413"
   x="89.484016"
   style="font-size:16.84726524px;font-style:normal;font-variant:normal;font-weight:normal;font-stretch:normal;text-align:start;line-height:125%;letter-spacing:0;word-spacing:0;writing-mode:lr-tb;text-anchor:start;fill:#000000;fill-opacity:1;stroke:none;font-family:UbuntuBeta;-inkscape-font-specification:UbuntuBeta"
   xml:space="preserve"><tspan
     y="440.67413"
     x="89.484016"
     id="tspan4045"
     sodipodi:role="line">Independent Ubuntu Magazine</tspan></text>



</g><g
   style="display:inline"
   inkscape:label="text converted"
   id="g4290"
   inkscape:groupmode="layer"
   transform="translate(0,-479.93745)" /></svg>